<svg width="16" height="16" viewBox="0 0 16 16" fill="none" xmlns="http://www.w3.org/2000/svg">
<path fill-rule="evenodd" clip-rule="evenodd" d="M6.82078 8.70312C8.19165 8.71753 9.40832 8.88306 10.2969 9.32399C10.7491 9.54839 11.1327 9.85213 11.4011 10.258C11.6714 10.6669 11.8038 11.1481 11.801 11.6901L11.8009 11.7009L11.8004 11.7115C11.7744 12.2525 11.5967 12.759 11.2487 13.1366C10.8943 13.5211 10.3979 13.7331 9.82078 13.7331H3.81027C3.23288 13.7331 2.73528 13.5215 2.3802 13.1369C2.03125 12.7589 1.85372 12.2514 1.83053 11.7089L1.83008 11.6982V11.6875C1.83008 11.1445 1.96408 10.6629 2.23485 10.2538C2.50377 9.84746 2.88725 9.54326 3.33938 9.31879C4.22792 8.87753 5.44267 8.71399 6.81158 8.70319L6.82078 8.70312ZM2.8301 11.6767C2.84712 12.0285 2.95966 12.2903 3.11496 12.4585C3.2657 12.6218 3.48898 12.7331 3.81027 12.7331H9.82078C10.1407 12.7331 10.3629 12.6222 10.5134 12.4588C10.6689 12.2902 10.7821 12.0274 10.801 11.6741C10.8012 11.3094 10.7133 11.0308 10.5669 10.8095C10.4171 10.583 10.1853 10.3849 9.85245 10.2198C9.17192 9.88213 8.14265 9.71753 6.81485 9.70319C5.48992 9.71399 4.46354 9.87706 3.78416 10.2144C3.45194 10.3794 3.21957 10.5778 3.06873 10.8057C2.92119 11.0286 2.83182 11.3094 2.8301 11.6767Z" fill="#7D87A1"/>
<path fill-rule="evenodd" clip-rule="evenodd" d="M11.5247 9.48878C11.6103 9.22618 11.8925 9.08272 12.1551 9.16832C12.7363 9.35772 13.2456 9.64192 13.6099 10.0652C13.9823 10.4978 14.1702 11.0377 14.1669 11.6678L14.1669 11.6784L14.1663 11.6892C14.1414 12.2074 13.9711 12.6944 13.6359 13.0581C13.2942 13.4288 12.8159 13.6327 12.2615 13.6327C11.9853 13.6327 11.7615 13.4089 11.7615 13.1327C11.7615 12.8566 11.9853 12.6327 12.2615 12.6327C12.5588 12.6327 12.7627 12.5299 12.9006 12.3804C13.0433 12.2255 13.1491 11.9822 13.1669 11.6517C13.1671 11.2424 13.0491 10.9464 12.852 10.7175C12.6451 10.4772 12.3183 10.2732 11.8452 10.119C11.5827 10.0335 11.4392 9.75132 11.5247 9.48878Z" fill="#7D87A1"/>
<path fill-rule="evenodd" clip-rule="evenodd" d="M6.6549 3.26855C5.63737 3.26855 4.8125 4.09343 4.8125 5.11095C4.8125 6.12848 5.63737 6.95333 6.6549 6.95333C7.6724 6.95333 8.49727 6.12848 8.49727 5.11095C8.49727 4.09343 7.6724 3.26855 6.6549 3.26855ZM3.8125 5.11095C3.8125 3.54114 5.08509 2.26855 6.6549 2.26855C8.22473 2.26855 9.49727 3.54114 9.49727 5.11095C9.49727 6.68079 8.22473 7.95333 6.6549 7.95333C5.08509 7.95333 3.8125 6.68079 3.8125 5.11095Z" fill="#7D87A1"/>
<path fill-rule="evenodd" clip-rule="evenodd" d="M10.0023 3.17227C10.0987 2.9135 10.3866 2.78187 10.6454 2.87827C11.6056 3.23597 12.2908 4.16113 12.2908 5.2476C12.2908 6.33407 11.6056 7.25926 10.6454 7.61693C10.3866 7.71333 10.0987 7.58173 10.0023 7.32293C9.9059 7.06419 10.0375 6.77626 10.2963 6.67986C10.8778 6.46319 11.2908 5.90299 11.2908 5.2476C11.2908 4.59221 10.8778 4.03201 10.2963 3.81536C10.0375 3.71896 9.9059 3.43104 10.0023 3.17227Z" fill="#7D87A1"/>
</svg>
