<svg width="28" height="28" viewBox="0 0 28 28" fill="none" xmlns="http://www.w3.org/2000/svg">
<path opacity="0.4" fill-rule="evenodd" clip-rule="evenodd" d="M3.85 12.3413C3.65671 12.3413 3.5 12.498 3.5 12.6913V17.8363C3.5 21.0948 5.593 23.2846 8.708 23.2846H20.4575C23.5737 23.2846 25.6667 21.0948 25.6667 17.8363V12.6913C25.6667 12.498 25.51 12.3413 25.3167 12.3413H3.85Z" fill="#C99B37"/>
<path fill-rule="evenodd" clip-rule="evenodd" d="M25.3167 10.5924C25.51 10.5924 25.6667 10.4357 25.6667 10.2424V10.1607C25.6667 6.90224 23.5737 4.7124 20.4575 4.7124H8.708C5.593 4.7124 3.5 6.90224 3.5 10.1607V10.2424C3.5 10.4357 3.65669 10.5924 3.85 10.5924H25.3167Z" fill="#C99B37"/>
<path d="M8.95703 18.5757H12.4209C12.9039 18.5757 13.2959 18.1837 13.2959 17.7007C13.2959 17.2177 12.9039 16.8257 12.4209 16.8257H8.95703C8.47403 16.8257 8.08203 17.2177 8.08203 17.7007C8.08203 18.1837 8.47403 18.5757 8.95703 18.5757Z" fill="#C99B37"/>
</svg>
