<svg width="16" height="16" viewBox="0 0 16 16" fill="none" xmlns="http://www.w3.org/2000/svg">
<path d="M7.70703 12.0449L7.70836 12.0516" stroke="#7D87A1" stroke-linecap="round" stroke-linejoin="round"/>
<path d="M7.70703 8.45898L7.70836 8.46565" stroke="#7D87A1" stroke-linecap="round" stroke-linejoin="round"/>
<path d="M7.70703 10.2715L7.70836 10.2782" stroke="#7D87A1" stroke-linecap="round" stroke-linejoin="round"/>
<path d="M10.2246 12.0449L10.2259 12.0516" stroke="#7D87A1" stroke-linecap="round" stroke-linejoin="round"/>
<path d="M10.2246 8.45898L10.2259 8.46565" stroke="#7D87A1" stroke-linecap="round" stroke-linejoin="round"/>
<path d="M10.2246 10.2715L10.2259 10.2782" stroke="#7D87A1" stroke-linecap="round" stroke-linejoin="round"/>
<path d="M2.32031 14H13.6788" stroke="#7D87A1" stroke-linecap="round" stroke-linejoin="round"/>
<path d="M12.7424 13.9993V7.38054C12.7424 6.65147 12.1514 6.06055 11.4224 6.06055H6.52117C5.79209 6.06055 5.20117 6.65147 5.20117 7.38054V13.9993" stroke="#7D87A1" stroke-linecap="round" stroke-linejoin="round"/>
<path d="M7.02986 4.11523L7.03052 4.1219M5.15234 4.11523L5.15299 4.1219" stroke="#7D87A1" stroke-linecap="round" stroke-linejoin="round"/>
<path d="M3.25586 13.9981V3.32065C3.25586 2.59027 3.84678 2 4.57716 2H7.65173C8.38213 2 8.97307 2.59027 8.97307 3.32065V6.05924" stroke="#7D87A1" stroke-linecap="round" stroke-linejoin="round"/>
</svg>
