<svg width="16" height="16" viewBox="0 0 16 16" fill="none" xmlns="http://www.w3.org/2000/svg">
<path d="M9.66227 12.2876C9.65773 13.0576 9.03047 13.6777 8.26047 13.6732H3.40051C2.63117 13.677 2.00389 13.0563 2 12.2863V8.77237C2.00325 8.4701 2.1466 8.18657 2.38791 8.0043L5.03001 5.88376C5.49641 5.51531 6.15483 5.51531 6.62059 5.88376L9.27433 8.00237C9.5144 8.18464 9.65707 8.4675 9.66227 8.76844V12.2876Z" stroke="#7D87A1" stroke-linecap="round" stroke-linejoin="round"/>
<path d="M5.83008 11.1484V13.5142" stroke="#7D87A1" stroke-linecap="round" stroke-linejoin="round"/>
<path d="M11.7106 13.599H12.576C13.3628 13.599 14.0005 12.9614 14.0005 12.1745V3.75069C14.0005 2.96383 13.3628 2.32617 12.576 2.32617H9.0938C8.31153 2.32617 7.67773 2.95994 7.67773 3.74225V4.32802" stroke="#7D87A1" stroke-linecap="round" stroke-linejoin="round"/>
<path d="M11.8438 10.8391V10.8458" stroke="#7D87A1" stroke-linecap="round" stroke-linejoin="round"/>
<path d="M11.8438 8.03084V8.02417" stroke="#7D87A1" stroke-linecap="round" stroke-linejoin="round"/>
<path d="M9.80469 5.20898V5.21565" stroke="#7D87A1" stroke-linecap="round" stroke-linejoin="round"/>
<path d="M11.8438 5.20898V5.21565" stroke="#7D87A1" stroke-linecap="round" stroke-linejoin="round"/>
</svg>
