<svg width="20" height="20" viewBox="0 0 20 20" fill="none" xmlns="http://www.w3.org/2000/svg">
<path d="M3.10547 7.88574H16.1874" stroke="#465378" stroke-width="1.25" stroke-linecap="round" stroke-linejoin="round"/>
<path d="M12.5869 2.5V4.89358" stroke="#465378" stroke-width="1.25" stroke-linecap="round" stroke-linejoin="round"/>
<path d="M6.70996 2.5V4.89358" stroke="#465378" stroke-width="1.25" stroke-linecap="round" stroke-linejoin="round"/>
<path d="M16.1903 9.4702V7.02555C16.1968 4.83874 14.8694 3.64844 12.7273 3.64844H6.56899C4.43245 3.64844 3.09863 4.83874 3.09863 7.02555V13.6079C3.09863 15.8287 4.43245 17.0466 6.56899 17.0466H8.36092" stroke="#465378" stroke-width="1.25" stroke-linecap="round" stroke-linejoin="round"/>
<path fill-rule="evenodd" clip-rule="evenodd" d="M16.902 14.2815C16.902 16.0588 15.4612 17.4997 13.683 17.4997C11.9057 17.4997 10.4648 16.0588 10.4648 14.2815C10.4648 12.5042 11.9057 11.0625 13.683 11.0625C15.4612 11.0625 16.902 12.5042 16.902 14.2815Z" stroke="#465378" stroke-width="1.25" stroke-linecap="round" stroke-linejoin="round"/>
<path d="M14.6817 15.1181L13.6641 14.51V13.2021" stroke="#465378" stroke-width="1.25" stroke-linecap="round" stroke-linejoin="round"/>
<path d="M6.38867 10.7842H6.39701" stroke="#465378" stroke-width="1.25" stroke-linecap="round" stroke-linejoin="round"/>
<path d="M6.38867 13.6816H6.39701" stroke="#465378" stroke-width="1.25" stroke-linecap="round" stroke-linejoin="round"/>
<path d="M9.44531 10.7842H9.45365" stroke="#465378" stroke-width="1.25" stroke-linecap="round" stroke-linejoin="round"/>
</svg>
