<svg width="28" height="28" viewBox="0 0 28 28" fill="none" xmlns="http://www.w3.org/2000/svg">
<path opacity="0.7" fill-rule="evenodd" clip-rule="evenodd" d="M23.3395 16.1993C22.349 15.2112 20.7565 15.0968 19.6318 15.9345C19.3191 16.1725 19.0053 16.4303 18.6856 16.6928C18.1933 17.0988 17.6916 17.506 17.1783 17.8467C17.1981 17.7078 17.2215 17.5702 17.2215 17.4255C17.2215 16.0442 16.2916 14.8833 14.9068 14.5345C13.5313 14.1903 12.0461 13.8788 10.435 13.9138C8.12151 13.9722 6.43568 15.1237 4.80584 16.2367L4.22951 16.6287C3.82818 16.8993 3.72084 17.4418 3.99034 17.8432C4.25984 18.2457 4.80468 18.3507 5.20484 18.0823L5.79284 17.6822C7.34334 16.6228 8.68268 15.7093 10.4782 15.6638C11.8816 15.6242 13.2256 15.917 14.481 16.232C15.0923 16.386 15.4715 16.8433 15.4715 17.4255C15.4715 18.1208 14.922 18.6272 14.1636 18.6272H13.7658C13.5476 18.6213 13.3271 18.6213 13.1043 18.6272H12.472C12.059 18.6272 11.7288 18.92 11.6367 19.305C11.6297 19.3295 11.6273 19.3552 11.6215 19.3808C11.6157 19.4217 11.597 19.459 11.597 19.5022C11.597 19.5278 11.6098 19.55 11.6122 19.5757C11.6133 19.6107 11.6017 19.6433 11.6063 19.6783C11.6157 19.7378 11.646 19.7868 11.6658 19.8405L11.667 19.844C11.807 20.2255 12.1838 20.4787 12.6026 20.4133C12.78 20.3877 12.9666 20.3818 13.1533 20.3772H13.767C13.8673 20.3807 13.963 20.3807 14.0656 20.3842C14.4063 20.3982 14.7446 20.4098 15.0841 20.4017C16.9905 20.3562 18.4826 19.1277 19.7986 18.0438C20.0996 17.7965 20.3948 17.5527 20.6841 17.3333C21.1135 17.0125 21.7236 17.0592 22.1005 17.4348C22.5216 17.8607 22.5216 18.5548 22.1005 18.9783L21.8578 19.2233C20.3341 20.7587 19.0181 22.0852 17.0686 22.8388C14.236 23.9378 11.5912 23.4175 8.44818 22.7968C7.19284 22.5437 6.06234 22.5238 4.71484 22.5238C4.23184 22.5238 3.83984 22.9158 3.83984 23.3988C3.83984 23.8818 4.23184 24.2738 4.71484 24.2738C6.00518 24.2738 7.00384 24.2913 8.19151 24.5305C9.99634 24.8863 11.7451 25.2305 13.522 25.2305C14.8858 25.2305 16.266 25.0275 17.701 24.471C19.9981 23.5832 21.5043 22.063 23.1003 20.4553L23.343 20.2103C24.4373 19.1067 24.4373 17.3077 23.3395 16.1993Z" fill="#C99B37"/>
<path fill-rule="evenodd" clip-rule="evenodd" d="M13.8083 10.0952C13.7453 9.78256 13.7103 9.46055 13.7103 9.13039C13.7103 6.65939 15.5443 4.62822 17.9184 4.27822C17.8123 4.13705 17.6979 4.00172 17.5708 3.87689C16.8614 3.16289 15.9176 2.76855 14.9143 2.76855C13.9109 2.76855 12.9683 3.16289 12.2613 3.87572C11.5508 4.58505 11.16 5.52655 11.1611 6.52989C11.1611 7.53205 11.552 8.47355 12.2613 9.18055C12.6988 9.61805 13.2343 9.91672 13.8083 10.0952Z" fill="#C99B37"/>
<path fill-rule="evenodd" clip-rule="evenodd" d="M14.877 9.13088C14.877 11.1959 16.5605 12.8747 18.6313 12.8747C20.701 12.8747 22.3856 11.1959 22.3856 9.13088C22.3856 7.05888 20.701 5.37305 18.6313 5.37305C16.5605 5.37305 14.877 7.05888 14.877 9.13088Z" fill="#C99B37"/>
</svg>
