<svg width="24" height="24" viewBox="0 0 24 24" fill="none" xmlns="http://www.w3.org/2000/svg">
<path d="M6.89844 19.2344H8.22944H16.9114H18.2434C18.6574 19.2344 18.9934 19.5704 18.9934 19.9844C18.9934 20.3984 18.6574 20.7344 18.2434 20.7344H6.89844C6.48444 20.7344 6.14844 20.3984 6.14844 19.9844C6.14844 19.5704 6.48444 19.2344 6.89844 19.2344Z" fill="#0E2050"/>
<path opacity="0.4" d="M22.2214 5.44163C22.1794 5.06263 21.8584 4.77562 21.4764 4.77562H19.0134C19.0474 4.21562 19.0504 3.84263 19.0504 3.76562C19.0504 3.48963 18.8274 3.26562 18.5504 3.26562H6.45036C6.31736 3.26562 6.19036 3.31864 6.09636 3.41263C6.00236 3.50564 5.95036 3.63362 5.95036 3.76662C5.95036 3.84363 5.95336 4.21662 5.98736 4.77562H3.52436C3.14236 4.77562 2.82136 5.06263 2.77936 5.44163C2.75936 5.61563 2.33636 9.72262 5.49136 11.7976C5.61836 11.8816 5.76036 11.9216 5.90236 11.9216C6.14636 11.9216 6.38536 11.8026 6.53036 11.5836C6.75736 11.2376 6.66236 10.7726 6.31536 10.5446C4.58936 9.40963 4.29036 7.33862 4.25536 6.27562H6.12836C6.51736 9.40462 7.76536 14.3896 11.7484 14.9536V16.7086L9.40447 16.709C9.18647 16.709 8.99447 16.85 8.92747 17.056L8.23047 19.232H16.9125L16.2165 17.057C16.1505 16.85 15.9585 16.709 15.7405 16.709L13.2484 16.7086V14.9556C17.2404 14.3996 18.4864 9.40763 18.8744 6.27562H20.7454C20.7104 7.33862 20.4114 9.40963 18.6854 10.5446C18.3384 10.7726 18.2434 11.2376 18.4704 11.5836C18.6154 11.8026 18.8544 11.9216 19.0984 11.9216C19.2404 11.9216 19.3824 11.8816 19.5094 11.7976C22.6644 9.72262 22.2414 5.61563 22.2214 5.44163Z" fill="#0E2050"/>
<path d="M14.0893 8.90918L14.7303 8.29518C14.8353 8.19018 14.9023 8.05318 14.9173 7.92118C14.9413 7.74818 14.8973 7.57718 14.7923 7.43818C14.6863 7.29918 14.5323 7.21018 14.3633 7.18718L13.5023 7.10418L13.0853 6.27318L13.0813 6.26318C13.0163 6.14418 12.9203 6.04918 12.8033 5.98818C12.4773 5.82018 12.0843 5.94718 11.9153 6.27418L11.5683 7.05318L10.6443 7.18618C10.4983 7.20418 10.3613 7.27418 10.2593 7.37918C10.1383 7.50418 10.0733 7.67018 10.0763 7.84318C10.0803 8.01718 10.1503 8.18018 10.2763 8.30018L10.9123 8.91118L10.7603 9.77618C10.7373 9.92018 10.7623 10.0672 10.8283 10.1842C10.9093 10.3392 11.0463 10.4542 11.2133 10.5052C11.2783 10.5252 11.3433 10.5352 11.4093 10.5352C11.5133 10.5352 11.6173 10.5102 11.7103 10.4602L12.4593 10.0272L13.2903 10.4602C13.4173 10.5252 13.5633 10.5472 13.6973 10.5252C14.0513 10.4692 14.2943 10.1342 14.2393 9.77118L14.0893 8.90918Z" fill="#0E2050"/>
</svg>
