<svg width="20" height="20" viewBox="0 0 20 20" fill="none" xmlns="http://www.w3.org/2000/svg">
<path d="M10.1438 7.18286C11.398 7.18309 12.418 8.20373 12.4182 9.45825C12.4182 10.713 11.3981 11.7344 10.1438 11.7346C8.88931 11.7346 7.86841 10.7131 7.86841 9.45825C7.86863 8.20358 8.88945 7.18286 10.1438 7.18286Z" fill="#0E2050" stroke="#0E2050"/>
<path fill-rule="evenodd" clip-rule="evenodd" d="M10.1254 18.125C5.64537 18.125 2.00037 14.48 2.00037 10C2.00037 5.52 5.64537 1.875 10.1254 1.875C14.6054 1.875 18.2504 5.52 18.2504 10C18.2504 14.48 14.6054 18.125 10.1254 18.125ZM10.1254 3.125C6.33453 3.125 3.25037 6.20917 3.25037 10C3.25037 12.2214 4.30948 14.2002 5.94928 15.4579C6.42932 14.2198 7.77748 13.1998 10.1435 13.1998C12.5 13.1998 13.8463 14.208 14.3312 15.4349C15.954 14.1762 17.0004 12.208 17.0004 10C17.0004 6.20917 13.9162 3.125 10.1254 3.125Z" fill="#0E2050"/>
</svg>
