<svg width="20" height="20" viewBox="0 0 20 20" fill="none" xmlns="http://www.w3.org/2000/svg">
<path d="M7.46484 10.438C8.54613 10.4146 9.55351 10.6235 10.5254 10.8667V10.8657C11.3031 11.0617 11.8008 11.7003 11.8008 12.4468C11.8007 12.5051 11.7912 12.559 11.7744 12.6763L11.6172 13.7808L12.5459 13.1636C12.7413 13.0339 12.9333 12.8927 13.1201 12.7476L13.6641 12.3091C13.8922 12.1217 14.1071 11.9442 14.3203 11.7817L14.3213 11.7827C14.8884 11.3604 15.6792 11.3884 16.2139 11.8306L16.3174 11.9243C16.9069 12.5217 16.9054 13.4912 16.3184 14.0835H16.3174L16.1445 14.2583C14.9972 15.414 13.9904 16.4218 12.4629 17.0122H12.4619C11.5029 17.3841 10.5799 17.521 9.6582 17.521C8.44642 17.521 7.24556 17.2865 5.94824 17.0308H5.94922C5.04816 16.8493 4.29151 16.8384 3.36719 16.8384C3.29847 16.8384 3.24242 16.782 3.24219 16.7134C3.24219 16.6445 3.29833 16.5884 3.36719 16.5884C4.32789 16.5884 5.09137 16.6029 5.93457 16.7729L5.93652 16.7739C8.15911 17.2128 10.1927 17.6243 12.3721 16.7788V16.7798C13.8791 16.1971 14.8892 15.1684 15.9668 14.0825H15.9678L16.1406 13.9077L16.1396 13.9067C16.6345 13.4086 16.6334 12.5994 16.1406 12.1011L16.1387 12.0991L16.0527 12.02C15.6069 11.6508 14.9498 11.6249 14.4746 11.98L14.4717 11.9819C14.2556 12.1457 14.0365 12.3271 13.8242 12.5015L13.8232 12.5024C12.8569 13.2983 11.9224 14.0451 10.7617 14.0728C10.537 14.0782 10.3092 14.07 10.0664 14.0601H10.0635C10.0222 14.0587 9.98275 14.0577 9.94824 14.0571C9.91251 14.0565 9.88141 14.0562 9.85059 14.0552L9.8418 14.0542H9.39453L9.38184 14.0552C9.25134 14.0584 9.08976 14.0623 8.92969 14.0854L8.92383 14.0864C8.89834 14.0903 8.87773 14.0848 8.8584 14.0728C8.83689 14.0593 8.81424 14.0355 8.80176 14.0015L8.80078 13.9976C8.79835 13.991 8.79533 13.9849 8.79297 13.979C8.79292 13.9746 8.7941 13.9699 8.79395 13.9653L8.79297 13.9507L8.79199 13.937L8.79102 13.9341C8.79157 13.9313 8.7925 13.9287 8.79297 13.9263C8.79364 13.9221 8.79528 13.9179 8.7959 13.9136L8.79492 13.9126C8.79533 13.9103 8.79659 13.9084 8.79688 13.9067L8.79785 13.9048C8.80613 13.8706 8.82404 13.8441 8.84375 13.8276C8.86185 13.8126 8.88265 13.8042 8.9082 13.8042H9.35938V13.8052L9.37305 13.8042H10.1162C10.8936 13.8042 11.5505 13.2579 11.5508 12.4468C11.5508 11.7765 11.0981 11.2684 10.4648 11.1089L9.76758 10.9438C9.05064 10.7866 8.27682 10.6652 7.46973 10.688C6.19905 10.7206 5.21665 11.2976 4.2627 11.939L3.85547 12.2163L3.43848 12.5005C3.38072 12.539 3.3034 12.5226 3.26562 12.4663H3.26465C3.22677 12.4099 3.24056 12.3316 3.2998 12.2915L3.30176 12.2905L3.71387 12.0103C4.89013 11.207 5.97972 10.4757 7.46484 10.438Z" fill="#0E2050" stroke="#0E2050"/>
<path fill-rule="evenodd" clip-rule="evenodd" d="M9.86157 7.21087C9.81657 6.98754 9.79157 6.75754 9.79157 6.52171C9.79157 4.75671 11.1016 3.30587 12.7974 3.05587C12.7216 2.95504 12.6399 2.85837 12.5491 2.76921C12.0424 2.25921 11.3682 1.97754 10.6516 1.97754C9.93491 1.97754 9.26157 2.25921 8.75657 2.76837C8.24904 3.27504 7.96987 3.94754 7.9707 4.66421C7.9707 5.38004 8.24987 6.05254 8.75657 6.55754C9.06907 6.87004 9.45157 7.08337 9.86157 7.21087Z" fill="#0E2050"/>
<path fill-rule="evenodd" clip-rule="evenodd" d="M10.627 6.52157C10.627 7.99657 11.8295 9.19575 13.3086 9.19575C14.787 9.19575 15.9903 7.99657 15.9903 6.52157C15.9903 5.04157 14.787 3.8374 13.3086 3.8374C11.8295 3.8374 10.627 5.04157 10.627 6.52157Z" fill="#0E2050"/>
</svg>
