<svg width="20" height="20" viewBox="0 0 20 20" fill="none" xmlns="http://www.w3.org/2000/svg">
<path d="M8.13867 2.98047C10.1025 2.98047 11.7012 4.57911 11.7012 6.54297C11.7012 8.50776 10.1025 10.1064 8.13867 10.1064C6.17488 10.1064 4.57617 8.50776 4.57617 6.54297C4.57617 4.57911 6.17481 2.98047 8.13867 2.98047Z" fill="#0E2050" stroke="#0E2050"/>
<path fill-rule="evenodd" clip-rule="evenodd" d="M8.13724 11.8721C3.98724 11.8721 2.12891 14.1637 2.12891 16.4387C2.12891 16.6054 2.19557 16.7637 2.31224 16.8804C2.42891 16.9971 2.58724 17.0637 2.75391 17.0637C2.75391 17.0637 6.47057 17.0579 7.59557 17.0562C7.59557 17.0562 8.57144 17.0546 8.57644 17.0546C8.66394 17.0521 8.74811 17.0362 8.83061 17.0096C9.18477 16.9087 9.41394 16.6187 9.41394 16.2062V12.7204C9.41394 12.2104 9.04394 11.8721 8.13724 11.8721Z" fill="#0E2050"/>
<path fill-rule="evenodd" clip-rule="evenodd" d="M12.3504 10.8307C11.8479 10.8316 11.4354 11.2424 11.4354 11.7499V12.1666C11.4354 12.4091 11.3371 12.6424 11.1662 12.8141L10.8787 13.1066L10.8704 13.1099V13.1116C10.5112 13.4716 10.5204 14.0532 10.8787 14.4099L11.1662 14.7024C11.3371 14.8749 11.4354 15.1066 11.4354 15.3491V15.7699C11.4354 16.2766 11.8479 16.6882 12.3504 16.6882H12.7721C13.0146 16.6882 13.2479 16.7849 13.4187 16.9557L13.7146 17.2474V17.2524C14.0737 17.6091 14.6571 17.6066 15.0162 17.2466L15.3029 16.9541C15.4829 16.7832 15.7154 16.6866 15.9579 16.6866H16.3712C16.8821 16.6874 17.2954 16.2766 17.2954 15.7699V15.3499C17.2954 15.1074 17.3846 14.8757 17.5646 14.7032L17.8512 14.4107L17.8604 14.4074C18.2104 14.0466 18.2104 13.4649 17.8512 13.1074L17.5646 12.8149C17.3846 12.6432 17.2954 12.4091 17.2954 12.1674V11.7499C17.2954 11.2424 16.8821 10.8307 16.3712 10.8307H15.9579C15.7154 10.8307 15.4829 10.7341 15.3121 10.5632L15.0162 10.2707V10.2682L15.0071 10.2674C14.6479 9.9099 14.0646 9.91073 13.7146 10.2707L13.4187 10.5641C13.2479 10.7349 13.0146 10.8307 12.7721 10.8307H12.3504ZM13.5282 15.016C13.6448 15.1335 13.804 15.1993 13.9698 15.1993C14.1357 15.1993 14.2957 15.1326 14.4123 15.0151L15.9873 13.4343C16.2307 13.1893 16.2298 12.7935 15.9857 12.5501C15.7407 12.3068 15.3448 12.3076 15.1015 12.5518L13.969 13.6893L13.644 13.3643C13.4007 13.1201 13.0057 13.1201 12.7607 13.3635C12.5165 13.6076 12.5165 14.0035 12.7607 14.2476L13.5282 15.016Z" fill="#0E2050"/>
</svg>
