<svg width="48" height="48" viewBox="0 0 48 48" fill="none" xmlns="http://www.w3.org/2000/svg">
<path d="M24.3438 17.2393C27.3544 17.2394 29.8037 19.6896 29.8037 22.7012C29.8036 25.7127 27.3544 28.163 24.3438 28.1631C21.333 28.1631 18.8839 25.7128 18.8838 22.7012C18.8838 19.6895 21.333 17.2393 24.3438 17.2393Z" fill="#0E2050" stroke="#0E2050" stroke-width="2.4"/>
<path fill-rule="evenodd" clip-rule="evenodd" d="M24.3008 43.5C13.5488 43.5 4.80078 34.752 4.80078 24C4.80078 13.248 13.5488 4.5 24.3008 4.5C35.0528 4.5 43.8008 13.248 43.8008 24C43.8008 34.752 35.0528 43.5 24.3008 43.5ZM24.3008 7.5C15.2028 7.5 7.80078 14.902 7.80078 24C7.80078 29.3314 10.3427 34.0806 14.2782 37.099C15.4303 34.1276 18.6659 31.6796 24.3444 31.6796C30 31.6796 33.231 34.0992 34.3948 37.0438C38.2896 34.023 40.8008 29.2992 40.8008 24C40.8008 14.902 33.3988 7.5 24.3008 7.5Z" fill="#0E2050"/>
</svg>
