<svg width="20" height="20" viewBox="0 0 20 20" fill="none" xmlns="http://www.w3.org/2000/svg">
<path d="M12.1436 3.09668C12.0552 4.19056 12.429 5.28901 13.2031 6.12891L13.3828 6.3125C14.1934 7.09156 15.2668 7.50674 16.3672 7.50684C16.3798 7.50684 16.3927 7.50599 16.4053 7.50586V8.96191C16.2326 8.94649 16.0577 8.93848 15.8809 8.93848C12.8302 8.93849 10.2993 11.2431 10.1201 14.1768H5.8291C5.91928 12.9984 5.48549 11.818 4.59766 10.9688C3.77677 10.1785 2.68827 9.76888 1.57422 9.78027V7.50684C1.58722 7.50698 1.60023 7.50879 1.61328 7.50879C2.71386 7.50879 3.78907 7.09227 4.60059 6.31152L4.60156 6.31055C5.49165 5.44911 5.9261 4.26934 5.83105 3.09668H12.1436ZM8.99023 5.70508C7.33725 5.70508 5.95898 7.00035 5.95898 8.63672C5.959 10.2731 7.33727 11.5684 8.99023 11.5684C10.6429 11.5683 12.0215 10.2732 12.0215 8.63672C12.0215 7.0002 10.6429 5.70517 8.99023 5.70508Z" fill="#0E2050" stroke="#0E2050"/>
<path fill-rule="evenodd" clip-rule="evenodd" d="M8.98979 7.40479C8.28315 7.40479 7.70898 7.95679 7.70898 8.63679C7.70898 9.31678 8.28315 9.86878 8.98979 9.86878C9.69646 9.86878 10.2715 9.31678 10.2715 8.63679C10.2715 7.95679 9.69646 7.40479 8.98979 7.40479Z" fill="#0E2050"/>
<path fill-rule="evenodd" clip-rule="evenodd" d="M16.8339 5.75875C16.8751 5.75131 16.9041 5.7164 16.9041 5.67624C16.9041 3.94434 15.8062 2.75736 14.1465 2.62116C14.0736 2.61518 14.0056 2.65801 13.9841 2.72519C13.7181 3.55439 13.9548 4.47205 14.6133 5.10344C15.2028 5.67091 16.0299 5.90451 16.8339 5.75875Z" fill="#0E2050"/>
<path fill-rule="evenodd" clip-rule="evenodd" d="M3.36839 5.1051C4.02124 4.47224 4.25624 3.55389 3.99024 2.72607C3.96864 2.65889 3.90064 2.61609 3.82768 2.62215C2.17049 2.75986 1.07422 3.94527 1.07422 5.6771C1.07422 5.71775 1.10366 5.7531 1.14525 5.7607C1.94841 5.90751 2.7783 5.67236 3.36839 5.1051Z" fill="#0E2050"/>
<path fill-rule="evenodd" clip-rule="evenodd" d="M1.13708 11.5231C1.10029 11.53 1.07422 11.5613 1.07422 11.5973C1.07422 13.33 2.17282 14.5175 3.83218 14.6523C3.90618 14.6583 3.97474 14.6141 3.99554 14.5457C4.25334 13.6975 4.02218 12.8042 3.36922 12.1789C2.77632 11.6081 1.94278 11.3733 1.13708 11.5231Z" fill="#0E2050"/>
<path fill-rule="evenodd" clip-rule="evenodd" d="M16.2181 14.7171C16.2181 15.0483 15.9381 15.3171 15.5931 15.3171C15.2481 15.3171 14.9681 15.0483 14.9681 14.7171V13.7811C14.9681 13.4499 15.2481 13.1811 15.5931 13.1811C15.9381 13.1811 16.2181 13.4499 16.2181 13.7811V14.7171ZM15.5931 11.0371C13.7548 11.0371 12.2598 12.4763 12.2598 14.2451C12.2598 16.0147 13.7548 17.4539 15.5931 17.4539C17.4314 17.4539 18.9264 16.0147 18.9264 14.2451C18.9264 12.4763 17.4314 11.0371 15.5931 11.0371Z" fill="#0E2050"/>
</svg>
