<svg width="20" height="20" viewBox="0 0 20 20" fill="none" xmlns="http://www.w3.org/2000/svg">
<path d="M13.0322 4.65527V7.54027" stroke="#465378" stroke-width="1.25" stroke-linecap="round" stroke-linejoin="round"/>
<path fill-rule="evenodd" clip-rule="evenodd" d="M14.4964 17.2523C14.0156 17.2523 11.4932 15.2098 11.4932 13.0724C11.4932 11.4135 12.8375 10.0684 14.4964 10.0684C16.1553 10.0684 17.4997 11.4135 17.4997 13.0724C17.4997 15.2098 14.9772 17.2523 14.4964 17.2523Z" stroke="#465378" stroke-width="1.25" stroke-linecap="round" stroke-linejoin="round"/>
<path d="M14.4961 13.1422V13.0449" stroke="#465378" stroke-width="1.25" stroke-linecap="round" stroke-linejoin="round"/>
<path d="M9.36842 16.2817L7.58303 15.6315C7.27978 15.522 6.94653 15.5333 6.65221 15.6639L3.71055 16.9693C3.14136 17.2223 2.5 16.8055 2.5 16.182V5.73136C2.5 5.1054 2.86893 4.53864 3.44055 4.28485L6.65221 2.85781C6.94653 2.72727 7.27978 2.71592 7.58222 2.82619L12.2761 4.53134C12.5785 4.6408 12.9126 4.62945 13.2068 4.49891L16.1445 3.19268C16.7145 2.93646 17.3567 3.35323 17.3567 3.97998V7.80948" stroke="#465378" stroke-width="1.25" stroke-linecap="round" stroke-linejoin="round"/>
<path d="M7.11133 15.5567V2.76367" stroke="#465378" stroke-width="1.25" stroke-linecap="round" stroke-linejoin="round"/>
</svg>
