<svg width="24" height="24" viewBox="0 0 24 24" fill="none" xmlns="http://www.w3.org/2000/svg">
<path d="M12.0659 21.001C8.74308 21.001 6.04199 18.3038 6.04199 14.9771C6.04199 11.6503 8.74308 8.95312 12.0659 8.95312C15.3888 8.95312 18.0899 11.6503 18.0899 14.9771C18.0899 18.3038 15.3888 21.001 12.0659 21.001Z" stroke="#0B1A40" stroke-width="1.5" stroke-linecap="round" stroke-linejoin="round"/>
<path d="M9.20752 9.66812L5.91484 3.84267C5.70467 3.47196 5.97322 3.01172 6.3994 3.01172H8.97497C9.17736 3.01172 9.36418 3.12167 9.46245 3.29876L12.6209 8.98993" stroke="#0B1A40" stroke-width="1.5" stroke-linecap="round" stroke-linejoin="round"/>
<path d="M12.2109 8.23969L14.6863 3.30747C14.7816 3.11871 14.9753 3 15.1864 3L17.6044 3.00778C18.0179 3.00876 18.2864 3.4437 18.1006 3.81441L15.1339 9.72938" stroke="#0B1A40" stroke-width="1.5" stroke-linecap="round" stroke-linejoin="round"/>
<path fill-rule="evenodd" clip-rule="evenodd" d="M12.3447 12.2751L12.9139 13.4116C12.9694 13.5235 13.0774 13.6013 13.2019 13.6179L14.4746 13.8018C14.6809 13.829 14.8259 14.0178 14.7986 14.2241C14.7879 14.3087 14.748 14.3866 14.6867 14.4459L13.7663 15.3304C13.6758 15.417 13.6349 15.5425 13.6563 15.6651L13.8743 16.9135C13.9074 17.1217 13.7653 17.3182 13.5571 17.3513C13.4753 17.365 13.3907 17.3513 13.3177 17.3124L12.1802 16.7228C12.0684 16.6654 11.936 16.6654 11.8241 16.7228L10.6857 17.3124C10.4999 17.4117 10.2683 17.3406 10.17 17.1538C10.1311 17.0799 10.1165 16.9962 10.1301 16.9144L10.3481 15.6651C10.3695 15.5425 10.3276 15.417 10.2381 15.3313L9.31666 14.4459C9.16682 14.3019 9.16195 14.0635 9.30693 13.9137C9.36531 13.8524 9.44413 13.8134 9.52878 13.8018L10.8015 13.6188C10.926 13.6013 11.0331 13.5245 11.0895 13.4116L11.6597 12.2751C11.758 12.0863 11.9905 12.0114 12.1793 12.1097C12.2503 12.1467 12.3077 12.2041 12.3447 12.2751Z" stroke="#0B1A40" stroke-width="1.5" stroke-linecap="round" stroke-linejoin="round"/>
</svg>
