<svg width="32" height="32" viewBox="0 0 32 32" fill="none" xmlns="http://www.w3.org/2000/svg">
<path opacity="0.4" fill-rule="evenodd" clip-rule="evenodd" d="M10.4215 9.47492C10.4771 9.57889 10.5758 9.65324 10.6913 9.67697C14.1644 10.3905 17.6748 10.4009 21.1494 9.70807C21.2764 9.68273 21.3827 9.59645 21.4347 9.47785L23.2278 5.39091C23.3238 5.16957 23.2944 4.91491 23.1504 4.72291C23.0051 4.52957 22.7678 4.42957 22.5304 4.46024C21.9678 4.53491 20.4144 4.72957 19.9918 4.74957C18.1331 4.85891 16.4478 4.29891 15.0238 3.73891C13.0505 2.98424 11.1798 3.27624 9.45049 4.61491C8.93316 5.02557 8.72649 5.20557 8.72649 5.20557C8.49183 5.40957 8.42916 5.74957 8.57583 6.02291L10.4215 9.47492Z" fill="#C99B37"/>
<path fill-rule="evenodd" clip-rule="evenodd" d="M16.999 23.1159V23.3212C16.999 23.8732 16.551 24.3212 15.999 24.3212C15.447 24.3212 14.999 23.8732 14.999 23.3212V23.1346H14.1737C13.6217 23.1346 13.1737 22.6866 13.1737 22.1346C13.1737 21.5826 13.6217 21.1346 14.1737 21.1346H15.935C15.9577 21.1332 15.9764 21.1212 15.999 21.1212C16.0217 21.1212 16.0404 21.1332 16.063 21.1346H16.8124C17.0444 21.1346 17.2324 20.9439 17.2324 20.7092C17.2324 20.4732 17.0444 20.2826 16.8124 20.2826H15.1884C13.8537 20.2826 12.7671 19.1986 12.7671 17.8679C12.7671 16.5959 13.7537 15.5599 14.999 15.4612V15.2412C14.999 14.6892 15.447 14.2412 15.999 14.2412C16.551 14.2412 16.999 14.6892 16.999 15.2412V15.4426H17.827C18.379 15.4426 18.827 15.8906 18.827 16.4426C18.827 16.9946 18.379 17.4426 17.827 17.4426H16.063C16.0404 17.4439 16.0217 17.4546 15.999 17.4546C15.9764 17.4546 15.9577 17.4439 15.935 17.4426H15.1884C14.9564 17.4426 14.767 17.6332 14.767 17.8679C14.767 18.0999 14.9524 18.2826 15.1884 18.2826H16.8124C18.147 18.2826 19.2324 19.3706 19.2324 20.7092C19.2324 21.9826 18.2457 23.0186 16.999 23.1159ZM23.651 14.8332C23.0553 13.8406 22.4273 12.8559 21.8002 11.8761C21.7112 11.737 21.5457 11.6672 21.3834 11.6986C19.5949 12.0454 17.7982 12.2292 15.999 12.2292C14.2022 12.2292 12.4067 12.0454 10.6192 11.6996C10.4574 11.6683 10.2924 11.7378 10.2032 11.8764C9.57366 12.8549 8.94442 13.8366 8.34842 14.8319C6.78575 17.4212 5.22575 20.4546 6.51242 23.6639C8.28308 28.0772 13.7284 28.6346 16.007 28.6692C18.2684 28.6346 23.715 28.0786 25.4857 23.6639C26.7724 20.4546 25.2124 17.4212 23.651 14.8332Z" fill="#C99B37"/>
</svg>
