<svg width="24" height="25" viewBox="0 0 24 25" fill="none" xmlns="http://www.w3.org/2000/svg">
<path opacity="0.4" fill-rule="evenodd" clip-rule="evenodd" d="M20.5746 12.4048C20.6822 12.4048 20.789 12.408 20.8952 12.4135C21.0717 12.4228 21.2236 12.2852 21.2236 12.1085V8.39983C21.2236 6.09683 19.7416 4.54883 17.5356 4.54883H5.91163C3.70563 4.54883 2.22363 6.09683 2.22363 8.39983V15.7988C2.22363 18.1018 3.70663 19.6498 5.91263 19.6498H13.1991C13.3688 19.6498 13.5038 19.5091 13.5048 19.3394C13.5056 19.2185 13.5096 19.0988 13.518 18.9791C13.7744 15.3053 16.8356 12.4048 20.5746 12.4048Z" fill="#0E2050"/>
<path fill-rule="evenodd" clip-rule="evenodd" d="M20.1807 17.9171L21.5587 16.5371C21.8517 16.2441 21.8517 15.7691 21.5577 15.4771C21.2657 15.1841 20.7907 15.1841 20.4977 15.4771L19.1207 16.8551L17.7427 15.4771C17.4507 15.1841 16.9747 15.1841 16.6817 15.4771C16.3887 15.7691 16.3887 16.2441 16.6817 16.5371L18.0607 17.9171L16.6817 19.2971C16.3887 19.5901 16.3887 20.0651 16.6817 20.3571C16.9747 20.6501 17.4507 20.6501 17.7427 20.3571L19.1207 18.9791L20.4977 20.3571C20.6437 20.5041 20.8367 20.5771 21.0287 20.5771C21.2207 20.5771 21.4117 20.5041 21.5577 20.3571C21.8517 20.0651 21.8517 19.5901 21.5587 19.2971L20.1807 17.9171Z" fill="#0E2050"/>
<path fill-rule="evenodd" clip-rule="evenodd" d="M11.7216 15.1386C10.0466 15.1386 8.68359 13.7756 8.68359 12.0986C8.68359 10.4216 10.0466 9.05859 11.7216 9.05859C13.3966 9.05859 14.7596 10.4216 14.7596 12.0986C14.7596 13.7756 13.3966 15.1386 11.7216 15.1386ZM10.1836 12.0984C10.1836 11.2484 10.8736 10.5584 11.7216 10.5584C12.5696 10.5584 13.2596 11.2484 13.2596 12.0984C13.2596 12.9484 12.5696 13.6384 11.7216 13.6384C10.8736 13.6384 10.1836 12.9484 10.1836 12.0984Z" fill="#0E2050"/>
<path d="M7.33952 9.29883H5.93652C5.52252 9.29883 5.18652 8.96283 5.18652 8.54883C5.18652 8.13483 5.52252 7.79883 5.93652 7.79883H7.33952C7.75352 7.79883 8.08952 8.13483 8.08952 8.54883C8.08952 8.96283 7.75352 9.29883 7.33952 9.29883Z" fill="#0E2050"/>
</svg>
