<svg width="16" height="16" viewBox="0 0 16 16" fill="none" xmlns="http://www.w3.org/2000/svg">
<path d="M11.7358 6.12109H4.26473C3.00106 6.12109 2.21484 7.01307 2.21484 8.2748V11.8465C2.21484 13.1089 3.00106 14.0002 4.26538 14.0002H11.7358C12.9988 14.0002 13.7851 13.1089 13.7851 11.8465V8.2748C13.7851 7.01307 12.9956 6.12109 11.7358 6.12109Z" stroke="#7D87A1" stroke-linecap="round" stroke-linejoin="round"/>
<path d="M4.28125 7.89453H5.18294" stroke="#7D87A1" stroke-linecap="round" stroke-linejoin="round"/>
<path d="M11.7181 12.2278H10.8164" stroke="#7D87A1" stroke-linecap="round" stroke-linejoin="round"/>
<path fill-rule="evenodd" clip-rule="evenodd" d="M6.52832 10.0617C6.52832 9.24953 7.18674 8.59106 7.99894 8.59106C8.81107 8.59106 9.46954 9.24953 9.46954 10.0617C9.46954 10.8739 8.81107 11.5323 7.99894 11.5323C7.18674 11.5323 6.52832 10.8739 6.52832 10.0617Z" stroke="#7D87A1" stroke-linecap="round" stroke-linejoin="round"/>
<path d="M5.41113 4.22493V3.23047" stroke="#7D87A1" stroke-linecap="round" stroke-linejoin="round"/>
<path d="M10.5869 4.22493V3.23047" stroke="#7D87A1" stroke-linecap="round" stroke-linejoin="round"/>
<path d="M7.99902 4.22504V2" stroke="#7D87A1" stroke-linecap="round" stroke-linejoin="round"/>
</svg>
