<svg width="16" height="16" viewBox="0 0 16 16" fill="none" xmlns="http://www.w3.org/2000/svg">
<path d="M4.46026 7.58427C4.92014 6.81887 5.41635 6.06582 5.89764 5.3121L4.5822 2.85051C4.5822 2.85051 4.68274 2.76423 4.93376 2.56964C5.68424 1.98846 6.50542 1.83797 7.39339 2.18305C8.23926 2.51191 9.09739 2.76099 10.0159 2.7091C10.2831 2.69353 11.3086 2.55732 11.3086 2.55732L10.1041 5.30756C10.5854 6.06063 11.0803 6.81887 11.5402 7.58427C12.2965 8.84267 13.0197 10.2463 12.434 11.7071C11.7523 13.4078 9.76352 13.9721 7.99986 14C6.23688 13.9721 4.24815 13.4078 3.56643 11.7071C2.9807 10.2463 3.70394 8.84267 4.46026 7.58427Z" stroke="#7D87A1" stroke-linecap="round" stroke-linejoin="round"/>
<path d="M5.89844 5.31787C7.3008 5.64024 8.70253 5.64024 10.1049 5.31787" stroke="#7D87A1" stroke-linecap="round" stroke-linejoin="round"/>
</svg>
