<svg width="24" height="25" viewBox="0 0 24 25" fill="none" xmlns="http://www.w3.org/2000/svg">
<path opacity="0.4" fill-rule="evenodd" clip-rule="evenodd" d="M17.812 8.76367H6.188C3.982 8.76367 2.5 10.3107 2.5 12.6127V18.1737C2.5 20.4767 3.982 22.0237 6.188 22.0237H17.811C20.018 22.0237 21.5 20.4767 21.5 18.1737V12.6127C21.5 10.3107 20.018 8.76367 17.812 8.76367Z" fill="#0E2050"/>
<path fill-rule="evenodd" clip-rule="evenodd" d="M6.75391 7.26172H17.2469C17.6609 7.26172 17.9969 6.92572 17.9969 6.51172C17.9969 6.09772 17.6609 5.76172 17.2469 5.76172H6.75391C6.33991 5.76172 6.00391 6.09772 6.00391 6.51172C6.00391 6.92572 6.33991 7.26172 6.75391 7.26172Z" fill="#0E2050"/>
<path fill-rule="evenodd" clip-rule="evenodd" d="M8.69141 4.60156H15.3094C15.7234 4.60156 16.0594 4.26556 16.0594 3.85156C16.0594 3.43756 15.7234 3.10156 15.3094 3.10156H8.69141C8.27741 3.10156 7.94141 3.43756 7.94141 3.85156C7.94141 4.26556 8.27741 4.60156 8.69141 4.60156Z" fill="#0E2050"/>
<path fill-rule="evenodd" clip-rule="evenodd" d="M11.999 18.4221C10.324 18.4221 8.96094 17.0631 8.96094 15.3921C8.96094 13.7151 10.324 12.3521 11.999 12.3521C13.674 12.3521 15.037 13.7151 15.037 15.3921C15.037 17.0631 13.674 18.4221 11.999 18.4221ZM10.4609 15.3917C10.4609 14.5417 11.1509 13.8517 11.9989 13.8517C12.8469 13.8517 13.5369 14.5417 13.5369 15.3917C13.5369 16.2357 12.8469 16.9217 11.9989 16.9217C11.1509 16.9217 10.4609 16.2357 10.4609 15.3917Z" fill="#0E2050"/>
<path d="M7.35808 19.022H5.95508C5.54108 19.022 5.20508 18.686 5.20508 18.272C5.20508 17.857 5.54108 17.522 5.95508 17.522H7.35808C7.77208 17.522 8.10808 17.857 8.10808 18.272C8.10808 18.686 7.77208 19.022 7.35808 19.022Z" fill="#0E2050"/>
<path d="M18.0436 13.252H16.6406C16.2266 13.252 15.8906 12.916 15.8906 12.502C15.8906 12.088 16.2266 11.752 16.6406 11.752H18.0436C18.4576 11.752 18.7936 12.088 18.7936 12.502C18.7936 12.916 18.4576 13.252 18.0436 13.252Z" fill="#0E2050"/>
</svg>
