<svg width="28" height="28" viewBox="0 0 28 28" fill="none" xmlns="http://www.w3.org/2000/svg">
<path opacity="0.4" fill-rule="evenodd" clip-rule="evenodd" d="M20.781 5.19043H7.21966C4.64599 5.19043 2.91699 6.99526 2.91699 9.6821V18.3154C2.91699 21.0022 4.64599 22.8071 7.21966 22.8071H20.7798C23.3547 22.8071 25.0837 21.0022 25.0837 18.3154V9.6821C25.0837 6.99526 23.3547 5.19043 20.781 5.19043Z" fill="#C99B37"/>
<path fill-rule="evenodd" clip-rule="evenodd" d="M13.9985 17.5474C12.0443 17.5474 10.4541 15.9572 10.4541 14.0007C10.4541 12.0442 12.0443 10.4541 13.9985 10.4541C15.9526 10.4541 17.5428 12.0442 17.5428 14.0007C17.5428 15.9572 15.9526 17.5474 13.9985 17.5474ZM12.2041 14.0005C12.2041 13.0088 13.0091 12.2038 13.9985 12.2038C14.9878 12.2038 15.7928 13.0088 15.7928 14.0005C15.7928 14.9922 14.9878 15.7972 13.9985 15.7972C13.0091 15.7972 12.2041 14.9922 12.2041 14.0005Z" fill="#C99B37"/>
<path d="M8.64941 14.8179C8.64941 15.3009 8.25741 15.6929 7.77441 15.6929C7.29141 15.6929 6.89941 15.3009 6.89941 14.8179V13.1846C6.89941 12.7016 7.29141 12.3096 7.77441 12.3096C8.25741 12.3096 8.64941 12.7016 8.64941 13.1846V14.8179Z" fill="#C99B37"/>
<path d="M21.1006 14.8179C21.1006 15.3009 20.7086 15.6929 20.2256 15.6929C19.7426 15.6929 19.3506 15.3009 19.3506 14.8179V13.1846C19.3506 12.7016 19.7426 12.3096 20.2256 12.3096C20.7086 12.3096 21.1006 12.7016 21.1006 13.1846V14.8179Z" fill="#C99B37"/>
</svg>
