<svg width="28" height="28" viewBox="0 0 28 28" fill="none" xmlns="http://www.w3.org/2000/svg">
<path opacity="0.4" d="M21.9433 10.5242C21.4165 10.5242 20.7188 10.5125 19.8501 10.5125C17.7315 10.5125 15.9895 8.75901 15.9895 6.62051V2.86851C15.9895 2.57334 15.7538 2.33301 15.4616 2.33301H9.29057C6.4107 2.33301 4.08301 4.69667 4.08301 7.59351V20.1643C4.08301 23.2035 6.5216 25.6663 9.53085 25.6663H18.7203C21.5898 25.6663 23.9163 23.3178 23.9163 20.4187V11.0492C23.9163 10.7528 23.6818 10.5137 23.3884 10.5148C22.8952 10.5183 22.3037 10.5242 21.9433 10.5242Z" fill="#C99B37"/>
<path opacity="0.4" d="M18.7645 2.99526C18.4156 2.63243 17.8066 2.8821 17.8066 3.38493V6.46143C17.8066 7.75177 18.8695 8.81343 20.1598 8.81343C20.973 8.82276 22.1023 8.8251 23.0613 8.82277C23.5525 8.8216 23.8021 8.23477 23.4615 7.8801C22.2306 6.60027 20.0268 4.3066 18.7645 2.99526Z" fill="#C99B37"/>
<path d="M16.821 17.3744C17.3005 17.3744 17.6902 17.7641 17.6902 18.2436C17.6902 18.7231 17.3005 19.1116 16.821 19.1116H10.4697C9.99018 19.1116 9.60168 18.7231 9.60168 18.2436C9.60168 17.7641 9.99018 17.3744 10.4697 17.3744H16.821ZM14.4187 11.5479C14.8982 11.5479 15.2879 11.9375 15.2879 12.417C15.2879 12.8965 14.8982 13.285 14.4187 13.285H10.4696C9.99006 13.285 9.60156 12.8965 9.60156 12.417C9.60156 11.9375 9.99006 11.5479 10.4696 11.5479H14.4187Z" fill="#C99B37"/>
</svg>
