<svg width="21" height="24" viewBox="0 0 21 24" fill="none" xmlns="http://www.w3.org/2000/svg">
<path d="M11.9612 0.333496C12.2615 0.333496 12.4926 0.578496 12.4926 0.870163V4.62683C12.4926 6.76183 14.2368 8.51183 16.3506 8.5235C17.2285 8.5235 17.9216 8.53516 18.453 8.53516L18.6497 8.5343C19.0048 8.5316 19.4829 8.5235 19.8968 8.5235C20.1856 8.5235 20.4166 8.75683 20.4166 9.0485V18.4285C20.4166 21.3218 18.0949 23.6668 15.2302 23.6668H6.03546C3.03216 23.6668 0.583313 21.2052 0.583313 18.1718V5.59516C0.583313 2.70183 2.91665 0.333496 5.79288 0.333496H11.9612ZM13.1972 15.3835H6.91335C6.43975 15.3835 6.04701 15.7685 6.04701 16.2468C6.04701 16.7252 6.43975 17.1218 6.91335 17.1218H13.1972C13.6708 17.1218 14.0635 16.7252 14.0635 16.2468C14.0635 15.7685 13.6708 15.3835 13.1972 15.3835ZM10.8176 9.55016H6.91335C6.43975 9.55016 6.04701 9.94683 6.04701 10.4252C6.04701 10.9035 6.43975 11.2885 6.91335 11.2885H10.8176C11.2912 11.2885 11.684 10.9035 11.684 10.4252C11.684 9.94683 11.2912 9.55016 10.8176 9.55016ZM14.1758 1.3905C14.1758 0.887663 14.7799 0.637996 15.1253 1.00083C16.374 2.31216 18.556 4.60466 19.7758 5.88566C20.1131 6.23916 19.8659 6.826 19.3796 6.82716C18.4301 6.83066 17.3108 6.82716 16.5057 6.819C15.2281 6.819 14.1758 5.75616 14.1758 4.46583V1.3905Z" fill="#0E2050"/>
</svg>
