<svg width="28" height="28" viewBox="0 0 28 28" fill="none" xmlns="http://www.w3.org/2000/svg">
<path opacity="0.4" d="M5.35588 6.69189C5.16267 6.69189 5.006 6.84846 5.00588 7.04167L4.99609 22.4459C4.99609 23.1156 5.33443 23.7293 5.90026 24.0863C6.47309 24.4468 7.17776 24.4876 7.78559 24.1983L8.64776 23.7899C9.01993 23.6138 9.44343 23.5998 9.81559 23.7561L12.2516 24.7489C12.8151 24.9764 13.4078 25.0908 14.0016 25.0908C14.5954 25.0908 15.1893 24.9753 15.7551 24.7478L18.1969 23.7538C18.5656 23.6009 18.9868 23.6126 19.3589 23.7899L20.2153 24.1971C20.8231 24.4876 21.5289 24.4456 22.0983 24.0874C22.6664 23.7269 23.0059 23.1098 23.0048 22.4343L22.9881 7.04152C22.988 6.84837 22.8313 6.69189 22.6381 6.69189H5.35588Z" fill="#C99B37"/>
<path d="M3.50065 5.24251H24.5007C25.1458 5.24251 25.6673 4.72101 25.6673 4.07585C25.6673 3.43068 25.1458 2.90918 24.5007 2.90918H3.50065C2.85548 2.90918 2.33398 3.43068 2.33398 4.07585C2.33398 4.72101 2.85548 5.24251 3.50065 5.24251Z" fill="#C99B37"/>
<path d="M10.793 12.6699H15.0735C15.5565 12.6699 15.9485 12.2779 15.9485 11.7949C15.9485 11.3119 15.5565 10.9199 15.0735 10.9199H10.793C10.31 10.9199 9.91797 11.3119 9.91797 11.7949C9.91797 12.2779 10.31 12.6699 10.793 12.6699Z" fill="#C99B37"/>
<path d="M10.793 17.6616H17.2143C17.6973 17.6616 18.0893 17.2696 18.0893 16.7866C18.0893 16.3036 17.6973 15.9116 17.2143 15.9116H10.793C10.31 15.9116 9.91797 16.3036 9.91797 16.7866C9.91797 17.2696 10.31 17.6616 10.793 17.6616Z" fill="#C99B37"/>
</svg>
