<svg width="24" height="24" viewBox="0 0 24 24" fill="none" xmlns="http://www.w3.org/2000/svg">
<path opacity="0.4" fill-rule="evenodd" clip-rule="evenodd" d="M12 2.5C6.762 2.5 2.5 6.761 2.5 12C2.5 17.238 6.762 21.5 12 21.5C17.238 21.5 21.5 17.238 21.5 12C21.5 6.761 17.238 2.5 12 2.5Z" fill="#B20E19"/>
<path fill-rule="evenodd" clip-rule="evenodd" d="M14.8658 14.8638C14.7198 15.0098 14.5278 15.0838 14.3358 15.0838C14.1428 15.0838 13.9518 15.0098 13.8048 14.8638L11.9988 13.0568L10.1978 14.8578C9.90477 15.1508 9.42977 15.1508 9.13677 14.8578C8.84477 14.5648 8.84477 14.0908 9.13677 13.7978L10.9378 11.9968L9.13577 10.1938C8.84277 9.90081 8.84277 9.42681 9.13577 9.13381C9.42877 8.84081 9.90277 8.84081 10.1958 9.13381L11.9978 10.9358L13.7998 9.13481C14.0928 8.84181 14.5668 8.84181 14.8598 9.13481C15.1528 9.42681 15.1528 9.90181 14.8598 10.1948L13.0588 11.9968L14.8658 13.8028C15.1588 14.0958 15.1588 14.5708 14.8658 14.8638Z" fill="#B20E19"/>
</svg>
