<svg width="28" height="28" viewBox="0 0 28 28" fill="none" xmlns="http://www.w3.org/2000/svg">
<path opacity="0.4" fill-rule="evenodd" clip-rule="evenodd" d="M12.9913 2.91699C7.5663 2.91699 3.16797 7.31533 3.16797 12.7403C3.16797 18.1653 7.5663 22.5637 12.9913 22.5637C18.4046 22.5637 22.8029 18.1653 22.8029 12.7403C22.8029 7.31533 18.4046 2.91699 12.9913 2.91699Z" fill="#C99B37"/>
<path fill-rule="evenodd" clip-rule="evenodd" d="M17.1327 11.132L12.6993 15.5536C12.5243 15.7286 12.3027 15.8103 12.081 15.8103C11.8593 15.8103 11.6376 15.7286 11.4626 15.5536L9.24594 13.337C8.9076 12.9986 8.9076 12.4503 9.24594 12.1003C9.58427 11.762 10.1326 11.762 10.4826 12.1003L12.081 13.6986L15.896 9.88363C16.2343 9.5453 16.7943 9.5453 17.1327 9.88363C17.4827 10.2336 17.4827 10.782 17.1327 11.132Z" fill="#C99B37"/>
<path fill-rule="evenodd" clip-rule="evenodd" d="M24.4883 23.0892L22.1748 20.7804C21.7186 20.3254 20.979 20.3254 20.5251 20.7827C20.069 21.2389 20.0701 21.9786 20.5263 22.4336L22.841 24.7412C23.0685 24.9676 23.3671 25.0819 23.6646 25.0819C23.9633 25.0819 24.2631 24.9676 24.4906 24.7389C24.9456 24.2827 24.9445 23.5442 24.4883 23.0892Z" fill="#C99B37"/>
</svg>
