<svg width="24" height="24" viewBox="0 0 24 24" fill="none" xmlns="http://www.w3.org/2000/svg">
<path opacity="0.4" d="M12.086 22C11.9622 22 11.8394 21.9716 11.7276 21.9137L8.1263 20.0496C7.1034 19.5201 6.304 18.9259 5.6808 18.2336C4.31357 16.7195 3.55444 14.776 3.54135 12.7599L3.50004 6.12426C3.49504 5.35842 3.98837 4.67103 4.72736 4.41215L11.34 2.10679C11.7337 1.96656 12.1716 1.9646 12.5703 2.09992L19.2081 4.32684C19.9511 4.57493 20.4535 5.25742 20.4575 6.02228L20.4998 12.6628C20.5129 14.676 19.78 16.6274 18.4349 18.1581C17.8167 18.8602 17.0254 19.4632 16.0135 20.0025L12.4445 21.9088C12.3337 21.9686 12.2099 21.999 12.086 22Z" fill="#D23833"/>
<path d="M13.0674 11.7247L14.4255 10.4019C14.7205 10.1146 14.7205 9.64977 14.4255 9.36246C14.1305 9.07514 13.6523 9.07514 13.3573 9.36246L11.9992 10.6843L10.642 9.36246C10.347 9.07514 9.86877 9.07514 9.57378 9.36246C9.27879 9.64977 9.27879 10.1146 9.57378 10.4019L10.932 11.7247L9.57378 13.0475C9.27879 13.3348 9.27879 13.7996 9.57378 14.0869C9.72178 14.2311 9.91509 14.3027 10.1084 14.3027C10.3007 14.3027 10.494 14.2311 10.642 14.0869L11.9992 12.7651L13.3573 14.0869C13.5053 14.2311 13.6976 14.3027 13.8909 14.3027C14.0842 14.3027 14.2775 14.2311 14.4255 14.0869C14.7205 13.7996 14.7205 13.3348 14.4255 13.0475L13.0674 11.7247Z" fill="#D23833"/>
</svg>
