<svg width="20" height="21" viewBox="0 0 20 21" fill="none" xmlns="http://www.w3.org/2000/svg">
<path opacity="0.4" fill-rule="evenodd" clip-rule="evenodd" d="M9.78128 2.73682C5.30125 2.73682 1.65625 6.38182 1.65625 10.8618C1.65625 15.3418 5.30125 18.9868 9.78128 18.9868C14.2613 18.9868 17.9063 15.3418 17.9063 10.8618C17.9063 6.38182 14.2613 2.73682 9.78128 2.73682Z" fill="#40750E"/>
<path fill-rule="evenodd" clip-rule="evenodd" d="M18.7605 5.71626L18.2211 6.03217C15.7361 7.48793 13.8149 9.40609 12.5116 10.9694C11.8612 11.7495 11.3682 12.437 11.039 12.9274C10.8745 13.1724 10.751 13.368 10.6696 13.5008C10.629 13.5672 10.5987 13.6179 10.5791 13.6513L10.5576 13.688L10.5529 13.6963L10.5522 13.6976L10.3728 14.0151H9.64597L9.46088 13.7353L9.45888 13.7322L9.44972 13.7185C9.44113 13.7059 9.4278 13.6864 9.40988 13.6607C9.37405 13.6093 9.31988 13.5329 9.24913 13.4373C9.10738 13.2458 8.90013 12.9781 8.64072 12.6773C8.11674 12.0699 7.40281 11.3546 6.60641 10.8511L6.07812 10.5171L6.74609 9.4605L7.27437 9.7945C8.21883 10.3916 9.02572 11.2099 9.58722 11.8609C9.72263 12.0179 9.84513 12.1667 9.95322 12.3024C9.9688 12.2789 9.9848 12.255 10.0011 12.2307C10.3505 11.7103 10.8692 10.9873 11.5515 10.169C12.9132 8.53558 14.9406 6.50517 17.5893 4.9536L18.1286 4.6377L18.7605 5.71626Z" fill="#40750E"/>
</svg>
