<svg width="24" height="25" viewBox="0 0 24 25" fill="none" xmlns="http://www.w3.org/2000/svg">
<path opacity="0.4" fill-rule="evenodd" clip-rule="evenodd" d="M11.7373 3.28467C6.3613 3.28467 1.9873 7.65867 1.9873 13.0347C1.9873 18.4107 6.3613 22.7847 11.7373 22.7847C17.1133 22.7847 21.4873 18.4107 21.4873 13.0347C21.4873 7.65867 17.1133 3.28467 11.7373 3.28467Z" fill="#199726"/>
<path fill-rule="evenodd" clip-rule="evenodd" d="M22.5128 6.85971L21.8656 7.2388C18.8835 8.98571 16.5781 11.2875 15.0141 13.1635C14.2337 14.0996 13.6421 14.9246 13.247 15.5131C13.0496 15.8071 12.9015 16.0418 12.8038 16.2011C12.755 16.2808 12.7187 16.3417 12.6952 16.3817L12.6694 16.4258L12.6637 16.4357L12.6629 16.4373L12.4476 16.8183H11.5754L11.3533 16.4825L11.3509 16.4788L11.3399 16.4624C11.3296 16.4473 11.3136 16.4239 11.2921 16.393C11.2491 16.3313 11.1841 16.2397 11.0992 16.125C10.9291 15.8952 10.6804 15.5739 10.3691 15.213C9.74029 14.4841 8.88357 13.6257 7.92789 13.0215L7.29395 12.6207L8.09551 11.3528L8.72944 11.7536C9.86279 12.4701 10.8311 13.4521 11.5049 14.2333C11.6674 14.4217 11.8144 14.6002 11.9441 14.7631C11.9628 14.7349 11.982 14.7062 12.0016 14.677C12.4209 14.0525 13.0433 13.185 13.862 12.203C15.4961 10.2429 17.929 7.8064 21.1074 5.94452L21.7546 5.56543L22.5128 6.85971Z" fill="#199726"/>
</svg>
