<svg width="24" height="24" viewBox="0 0 24 24" fill="none" xmlns="http://www.w3.org/2000/svg">
<path fill-rule="evenodd" clip-rule="evenodd" d="M9.76758 2.97656C7.07958 2.97656 4.89258 5.16356 4.89258 7.85156C4.89258 10.5406 7.07958 12.7276 9.76758 12.7276C12.4556 12.7276 14.6426 10.5406 14.6426 7.85156C14.6426 5.16356 12.4556 2.97656 9.76758 2.97656Z" fill="#0E2050"/>
<path opacity="0.4" fill-rule="evenodd" clip-rule="evenodd" d="M9.76566 14.2461C4.78566 14.2461 2.55566 16.9961 2.55566 19.7261C2.55566 19.9261 2.63566 20.1161 2.77566 20.2561C2.91566 20.3961 3.10566 20.4761 3.30566 20.4761C3.30566 20.4761 7.76566 20.4691 9.11566 20.4671C9.11566 20.4671 10.2867 20.4651 10.2927 20.4651C10.3977 20.4621 10.4987 20.4431 10.5977 20.4111C11.0227 20.2901 11.2977 19.9421 11.2977 19.4471V15.2641C11.2977 14.6521 10.8537 14.2461 9.76566 14.2461Z" fill="#0E2050"/>
<path fill-rule="evenodd" clip-rule="evenodd" d="M14.8195 12.9964C14.2165 12.9974 13.7215 13.4904 13.7215 14.0994V14.5994C13.7215 14.8904 13.6035 15.1704 13.3985 15.3764L13.0535 15.7274L13.0435 15.7314V15.7334C12.6125 16.1654 12.6235 16.8634 13.0535 17.2914L13.3985 17.6424C13.6035 17.8494 13.7215 18.1274 13.7215 18.4184V18.9234C13.7215 19.5314 14.2165 20.0254 14.8195 20.0254H15.3255C15.6165 20.0254 15.8965 20.1414 16.1015 20.3464L16.4565 20.6964V20.7024C16.8875 21.1304 17.5875 21.1274 18.0185 20.6954L18.3625 20.3444C18.5785 20.1394 18.8575 20.0234 19.1485 20.0234H19.6445C20.2575 20.0244 20.7535 19.5314 20.7535 18.9234V18.4194C20.7535 18.1284 20.8605 17.8504 21.0765 17.6434L21.4205 17.2924L21.4315 17.2884C21.8515 16.8554 21.8515 16.1574 21.4205 15.7284L21.0765 15.3774C20.8605 15.1714 20.7535 14.8904 20.7535 14.6004V14.0994C20.7535 13.4904 20.2575 12.9964 19.6445 12.9964H19.1485C18.8575 12.9964 18.5785 12.8804 18.3735 12.6754L18.0185 12.3244V12.3214L18.0075 12.3204C17.5765 11.8914 16.8765 11.8924 16.4565 12.3244L16.1015 12.6764C15.8965 12.8814 15.6165 12.9964 15.3255 12.9964H14.8195ZM16.2328 18.0187C16.3728 18.1597 16.5638 18.2387 16.7628 18.2387C16.9618 18.2387 17.1538 18.1587 17.2938 18.0177L19.1838 16.1207C19.4758 15.8267 19.4748 15.3517 19.1818 15.0597C18.8878 14.7677 18.4128 14.7687 18.1208 15.0617L16.7618 16.4267L16.3718 16.0367C16.0798 15.7437 15.6058 15.7437 15.3118 16.0357C15.0188 16.3287 15.0188 16.8037 15.3118 17.0967L16.2328 18.0187Z" fill="#0E2050"/>
</svg>
