<svg width="28" height="28" viewBox="0 0 28 28" fill="none" xmlns="http://www.w3.org/2000/svg">
<path fill-rule="evenodd" clip-rule="evenodd" d="M11.3955 3.47266C8.25951 3.47266 5.70801 6.02416 5.70801 9.16016C5.70801 12.2974 8.25951 14.8489 11.3955 14.8489C14.5315 14.8489 17.083 12.2974 17.083 9.16016C17.083 6.02416 14.5315 3.47266 11.3955 3.47266Z" fill="#C99B37"/>
<path fill-rule="evenodd" clip-rule="evenodd" d="M17.2896 15.1625C16.5861 15.1637 16.0086 15.7389 16.0086 16.4494V17.0327C16.0086 17.3722 15.8709 17.6989 15.6318 17.9392L15.2293 18.3487L15.2176 18.3534V18.3557C14.7148 18.8597 14.7276 19.674 15.2293 20.1734L15.6318 20.5829C15.8709 20.8244 16.0086 21.1487 16.0086 21.4882V22.0774C16.0086 22.7867 16.5861 23.363 17.2896 23.363H17.8799C18.2194 23.363 18.5461 23.4984 18.7853 23.7375L19.1994 24.1459V24.1529C19.7023 24.6522 20.5189 24.6487 21.0218 24.1447L21.4231 23.7352C21.6751 23.496 22.0006 23.3607 22.3401 23.3607H22.9188C23.6339 23.3619 24.2126 22.7867 24.2126 22.0774V21.4894C24.2126 21.1499 24.3374 20.8255 24.5894 20.584L24.9908 20.1745L25.0036 20.1699C25.4936 19.6647 25.4936 18.8504 24.9908 18.3499L24.5894 17.9404C24.3374 17.7 24.2126 17.3722 24.2126 17.0339V16.4494C24.2126 15.7389 23.6339 15.1625 22.9188 15.1625H22.3401C22.0006 15.1625 21.6751 15.0272 21.4359 14.788L21.0218 14.3785V14.375L21.0089 14.3739C20.5061 13.8734 19.6894 13.8745 19.1994 14.3785L18.7853 14.7892C18.5461 15.0284 18.2194 15.1625 17.8799 15.1625H17.2896ZM18.9384 21.0219C19.1018 21.1864 19.3246 21.2786 19.5568 21.2786C19.7889 21.2786 20.0129 21.1852 20.1763 21.0207L22.3813 18.8076C22.7219 18.4646 22.7208 17.9104 22.3789 17.5697C22.0359 17.2291 21.4818 17.2302 21.1411 17.5721L19.5556 19.1646L19.1006 18.7096C18.7599 18.3677 18.2069 18.3677 17.8639 18.7084C17.5221 19.0502 17.5221 19.6044 17.8639 19.9462L18.9384 21.0219Z" fill="#C99B37"/>
<path opacity="0.4" fill-rule="evenodd" clip-rule="evenodd" d="M11.3931 16.6206C5.58311 16.6206 2.98145 19.8289 2.98145 23.0139C2.98145 23.2473 3.07478 23.4689 3.23811 23.6323C3.40145 23.7956 3.62311 23.8889 3.85645 23.8889C3.85645 23.8889 9.05978 23.8808 10.6348 23.8784C10.6348 23.8784 12.001 23.8761 12.008 23.8761C12.1305 23.8726 12.2483 23.8504 12.3638 23.8131C12.8597 23.6719 13.1805 23.2659 13.1805 22.6884V17.8083C13.1805 17.0943 12.6625 16.6206 11.3931 16.6206Z" fill="#C99B37"/>
</svg>
