<svg width="32" height="32" viewBox="0 0 32 32" fill="none" xmlns="http://www.w3.org/2000/svg">
<path opacity="0.4" d="M26.6395 20.4061C27.9062 19.1395 28.6129 17.6595 28.6662 16.1128C28.7195 14.5261 28.0929 13.0328 26.8262 11.7794L20.2262 5.16609C17.6929 2.64609 14.2262 2.72609 11.5862 5.35275L5.35958 11.5794C2.71958 14.2195 2.65291 17.6995 5.17291 20.2195L11.7862 26.8328C13.0129 28.0595 14.4662 28.6728 15.9329 28.6728C17.4795 28.6728 19.0529 27.9928 20.4129 26.6328L26.6395 20.4061Z" fill="#C99B37"/>
<path fill-rule="evenodd" clip-rule="evenodd" d="M26.5496 8.41521C26.9401 8.80573 26.9401 9.43889 26.5496 9.82943L16.3373 20.0417C15.9468 20.4322 15.3136 20.4322 14.923 20.0417L10.8847 16.0033C10.4942 15.6127 10.4942 14.9797 10.8847 14.5891C11.2752 14.1986 11.9084 14.1986 12.2989 14.5891L15.6302 17.9203L25.1353 8.41521C25.5258 8.02468 26.159 8.02468 26.5496 8.41521Z" fill="#C99B37"/>
</svg>
