<svg width="10" height="9" viewBox="0 0 10 9" fill="none" xmlns="http://www.w3.org/2000/svg">
<path d="M7.40572 7.67C7.83505 7.67 8.16172 7.56267 8.38572 7.348C8.60972 7.124 8.72172 6.82067 8.72172 6.438V3.4H9.86972V6.508C9.86972 7.21733 9.65505 7.78667 9.22572 8.216C8.80572 8.64533 8.20839 8.86 7.43372 8.86H3.35972C2.54772 8.86 1.93172 8.64533 1.51172 8.216C1.09172 7.77733 0.881719 7.18467 0.881719 6.438V3.4H2.04372V6.284C2.04372 7.208 2.50572 7.67 3.42972 7.67H7.40572ZM2.84172 0.32H7.90972V1.496H2.84172V0.32Z" fill="#465378"/>
</svg>
